<mxfile host="app.diagrams.net" modified="2021-10-11T09:14:59.093Z" agent="5.0 (Windows NT 6.1) AppleWebKit/537.36 (KHTML, like Gecko) Chrome/92.0.4515.159 Safari/537.36" etag="_FFXH-fmBMPGjciCEKnE" version="15.5.0" type="github">
  <diagram id="R9RIfxV9AmvsHmRMhJoc" name="Page-1">
    <mxGraphModel dx="1102" dy="614" grid="1" gridSize="10" guides="1" tooltips="1" connect="1" arrows="1" fold="1" page="1" pageScale="1" pageWidth="827" pageHeight="1169" math="0" shadow="0">
      <root>
        <mxCell id="0" />
        <mxCell id="1" parent="0" />
        <mxCell id="wgBA696czx0_unM-798S-16" style="edgeStyle=none;rounded=0;orthogonalLoop=1;jettySize=auto;html=1;exitX=1;exitY=0.5;exitDx=0;exitDy=0;entryX=0;entryY=0;entryDx=0;entryDy=0;fontSize=20;" edge="1" parent="1" source="wgBA696czx0_unM-798S-6" target="wgBA696czx0_unM-798S-3">
          <mxGeometry relative="1" as="geometry" />
        </mxCell>
        <mxCell id="wgBA696czx0_unM-798S-6" value="" style="ellipse;whiteSpace=wrap;html=1;aspect=fixed;fontSize=20;" vertex="1" parent="1">
          <mxGeometry x="180" y="110" width="70" height="70" as="geometry" />
        </mxCell>
        <mxCell id="wgBA696czx0_unM-798S-7" style="edgeStyle=none;rounded=0;orthogonalLoop=1;jettySize=auto;html=1;exitX=1;exitY=0;exitDx=0;exitDy=0;fontSize=20;" edge="1" parent="1" source="wgBA696czx0_unM-798S-1" target="wgBA696czx0_unM-798S-6">
          <mxGeometry relative="1" as="geometry" />
        </mxCell>
        <mxCell id="wgBA696czx0_unM-798S-14" style="rounded=0;orthogonalLoop=1;jettySize=auto;html=1;exitX=1;exitY=1;exitDx=0;exitDy=0;entryX=0;entryY=0.5;entryDx=0;entryDy=0;fontSize=20;" edge="1" parent="1" source="wgBA696czx0_unM-798S-1" target="wgBA696czx0_unM-798S-8">
          <mxGeometry relative="1" as="geometry" />
        </mxCell>
        <mxCell id="wgBA696czx0_unM-798S-1" value="s" style="ellipse;whiteSpace=wrap;html=1;aspect=fixed;fontSize=20;" vertex="1" parent="1">
          <mxGeometry x="60" y="280" width="50" height="50" as="geometry" />
        </mxCell>
        <mxCell id="wgBA696czx0_unM-798S-2" value="d_int" style="ellipse;whiteSpace=wrap;html=1;aspect=fixed;fontSize=20;" vertex="1" parent="1">
          <mxGeometry x="190" y="120" width="50" height="50" as="geometry" />
        </mxCell>
        <mxCell id="wgBA696czx0_unM-798S-20" style="edgeStyle=none;rounded=0;orthogonalLoop=1;jettySize=auto;html=1;exitX=1;exitY=0.5;exitDx=0;exitDy=0;fontSize=20;" edge="1" parent="1" source="wgBA696czx0_unM-798S-3">
          <mxGeometry relative="1" as="geometry">
            <mxPoint x="520" y="255" as="targetPoint" />
          </mxGeometry>
        </mxCell>
        <mxCell id="wgBA696czx0_unM-798S-3" value="to_d_f" style="ellipse;whiteSpace=wrap;html=1;aspect=fixed;fontSize=20;" vertex="1" parent="1">
          <mxGeometry x="364" y="230" width="50" height="50" as="geometry" />
        </mxCell>
        <mxCell id="wgBA696czx0_unM-798S-5" value="1-9" style="text;html=1;align=center;verticalAlign=middle;resizable=0;points=[];autosize=1;strokeColor=none;fillColor=none;fontSize=20;" vertex="1" parent="1">
          <mxGeometry x="110" y="195" width="40" height="30" as="geometry" />
        </mxCell>
        <mxCell id="wgBA696czx0_unM-798S-17" style="edgeStyle=none;rounded=0;orthogonalLoop=1;jettySize=auto;html=1;exitX=1;exitY=0.5;exitDx=0;exitDy=0;entryX=0;entryY=1;entryDx=0;entryDy=0;fontSize=20;" edge="1" parent="1" source="wgBA696czx0_unM-798S-8" target="wgBA696czx0_unM-798S-3">
          <mxGeometry relative="1" as="geometry" />
        </mxCell>
        <mxCell id="wgBA696czx0_unM-798S-30" style="rounded=0;orthogonalLoop=1;jettySize=auto;html=1;exitX=1;exitY=1;exitDx=0;exitDy=0;entryX=0;entryY=0.5;entryDx=0;entryDy=0;fontSize=20;" edge="1" parent="1" source="wgBA696czx0_unM-798S-8" target="wgBA696czx0_unM-798S-28">
          <mxGeometry relative="1" as="geometry" />
        </mxCell>
        <mxCell id="wgBA696czx0_unM-798S-49" style="edgeStyle=orthogonalEdgeStyle;curved=1;rounded=0;orthogonalLoop=1;jettySize=auto;html=1;exitX=0.5;exitY=1;exitDx=0;exitDy=0;fontSize=20;" edge="1" parent="1" source="wgBA696czx0_unM-798S-8">
          <mxGeometry relative="1" as="geometry">
            <mxPoint x="215" y="490" as="targetPoint" />
          </mxGeometry>
        </mxCell>
        <mxCell id="wgBA696czx0_unM-798S-8" value="" style="ellipse;whiteSpace=wrap;html=1;aspect=fixed;fontSize=20;" vertex="1" parent="1">
          <mxGeometry x="180" y="310" width="70" height="70" as="geometry" />
        </mxCell>
        <mxCell id="wgBA696czx0_unM-798S-9" value="d_int" style="ellipse;whiteSpace=wrap;html=1;aspect=fixed;fontSize=20;" vertex="1" parent="1">
          <mxGeometry x="190" y="320" width="50" height="50" as="geometry" />
        </mxCell>
        <mxCell id="wgBA696czx0_unM-798S-12" style="edgeStyle=orthogonalEdgeStyle;curved=1;rounded=0;orthogonalLoop=1;jettySize=auto;html=1;exitX=0;exitY=0;exitDx=0;exitDy=0;entryX=1;entryY=0;entryDx=0;entryDy=0;fontSize=20;" edge="1" parent="1" source="wgBA696czx0_unM-798S-6" target="wgBA696czx0_unM-798S-6">
          <mxGeometry relative="1" as="geometry">
            <Array as="points">
              <mxPoint x="190" y="90" />
              <mxPoint x="240" y="90" />
            </Array>
          </mxGeometry>
        </mxCell>
        <mxCell id="wgBA696czx0_unM-798S-13" value="0-9" style="text;html=1;align=center;verticalAlign=middle;resizable=0;points=[];autosize=1;strokeColor=none;fillColor=none;fontSize=20;" vertex="1" parent="1">
          <mxGeometry x="195" y="60" width="40" height="30" as="geometry" />
        </mxCell>
        <mxCell id="wgBA696czx0_unM-798S-15" value="0" style="text;html=1;align=center;verticalAlign=middle;resizable=0;points=[];autosize=1;strokeColor=none;fillColor=none;fontSize=20;" vertex="1" parent="1">
          <mxGeometry x="115" y="340" width="30" height="30" as="geometry" />
        </mxCell>
        <mxCell id="wgBA696czx0_unM-798S-18" value="" style="shape=waypoint;sketch=0;size=6;pointerEvents=1;points=[];fillColor=none;resizable=0;rotatable=0;perimeter=centerPerimeter;snapToPoint=1;fontSize=20;" vertex="1" parent="1">
          <mxGeometry x="300" y="160" width="40" height="40" as="geometry" />
        </mxCell>
        <mxCell id="wgBA696czx0_unM-798S-19" value="" style="shape=waypoint;sketch=0;size=6;pointerEvents=1;points=[];fillColor=none;resizable=0;rotatable=0;perimeter=centerPerimeter;snapToPoint=1;fontSize=20;" vertex="1" parent="1">
          <mxGeometry x="300" y="300" width="40" height="40" as="geometry" />
        </mxCell>
        <mxCell id="wgBA696czx0_unM-798S-21" value="" style="ellipse;whiteSpace=wrap;html=1;aspect=fixed;fontSize=20;" vertex="1" parent="1">
          <mxGeometry x="520" y="220" width="70" height="70" as="geometry" />
        </mxCell>
        <mxCell id="wgBA696czx0_unM-798S-22" value="d_f" style="ellipse;whiteSpace=wrap;html=1;aspect=fixed;fontSize=20;" vertex="1" parent="1">
          <mxGeometry x="530" y="230" width="50" height="50" as="geometry" />
        </mxCell>
        <mxCell id="wgBA696czx0_unM-798S-23" value="0-9" style="text;html=1;align=center;verticalAlign=middle;resizable=0;points=[];autosize=1;strokeColor=none;fillColor=none;fontSize=20;" vertex="1" parent="1">
          <mxGeometry x="450" y="225" width="40" height="30" as="geometry" />
        </mxCell>
        <mxCell id="wgBA696czx0_unM-798S-25" style="edgeStyle=orthogonalEdgeStyle;curved=1;rounded=0;orthogonalLoop=1;jettySize=auto;html=1;exitX=0;exitY=0;exitDx=0;exitDy=0;entryX=1;entryY=0;entryDx=0;entryDy=0;fontSize=20;" edge="1" parent="1" source="wgBA696czx0_unM-798S-21" target="wgBA696czx0_unM-798S-21">
          <mxGeometry relative="1" as="geometry">
            <Array as="points">
              <mxPoint x="530" y="200" />
              <mxPoint x="580" y="200" />
            </Array>
          </mxGeometry>
        </mxCell>
        <mxCell id="wgBA696czx0_unM-798S-26" value="0-9" style="text;html=1;align=center;verticalAlign=middle;resizable=0;points=[];autosize=1;strokeColor=none;fillColor=none;fontSize=20;" vertex="1" parent="1">
          <mxGeometry x="535" y="165" width="40" height="30" as="geometry" />
        </mxCell>
        <mxCell id="wgBA696czx0_unM-798S-37" style="edgeStyle=orthogonalEdgeStyle;curved=1;rounded=0;orthogonalLoop=1;jettySize=auto;html=1;exitX=1;exitY=0.5;exitDx=0;exitDy=0;entryX=0;entryY=0.5;entryDx=0;entryDy=0;fontSize=20;" edge="1" parent="1" source="wgBA696czx0_unM-798S-28" target="wgBA696czx0_unM-798S-35">
          <mxGeometry relative="1" as="geometry" />
        </mxCell>
        <mxCell id="wgBA696czx0_unM-798S-28" value="" style="ellipse;whiteSpace=wrap;html=1;aspect=fixed;fontSize=20;" vertex="1" parent="1">
          <mxGeometry x="344" y="400" width="70" height="70" as="geometry" />
        </mxCell>
        <mxCell id="wgBA696czx0_unM-798S-29" value="o_d" style="ellipse;whiteSpace=wrap;html=1;aspect=fixed;fontSize=20;" vertex="1" parent="1">
          <mxGeometry x="354" y="410" width="50" height="50" as="geometry" />
        </mxCell>
        <mxCell id="wgBA696czx0_unM-798S-31" value="1-7" style="text;html=1;align=center;verticalAlign=middle;resizable=0;points=[];autosize=1;strokeColor=none;fillColor=none;fontSize=20;" vertex="1" parent="1">
          <mxGeometry x="240" y="395" width="40" height="30" as="geometry" />
        </mxCell>
        <mxCell id="wgBA696czx0_unM-798S-42" style="edgeStyle=orthogonalEdgeStyle;curved=1;rounded=0;orthogonalLoop=1;jettySize=auto;html=1;exitX=1;exitY=0.5;exitDx=0;exitDy=0;entryX=0;entryY=0.5;entryDx=0;entryDy=0;fontSize=20;" edge="1" parent="1" source="wgBA696czx0_unM-798S-35" target="wgBA696czx0_unM-798S-41">
          <mxGeometry relative="1" as="geometry" />
        </mxCell>
        <mxCell id="wgBA696czx0_unM-798S-35" value="" style="ellipse;whiteSpace=wrap;html=1;aspect=fixed;fontSize=20;" vertex="1" parent="1">
          <mxGeometry x="530" y="400" width="70" height="70" as="geometry" />
        </mxCell>
        <mxCell id="wgBA696czx0_unM-798S-36" value="o_d" style="ellipse;whiteSpace=wrap;html=1;aspect=fixed;fontSize=20;" vertex="1" parent="1">
          <mxGeometry x="540" y="410" width="50" height="50" as="geometry" />
        </mxCell>
        <mxCell id="wgBA696czx0_unM-798S-38" value="0-7" style="text;html=1;align=center;verticalAlign=middle;resizable=0;points=[];autosize=1;strokeColor=none;fillColor=none;fontSize=20;" vertex="1" parent="1">
          <mxGeometry x="430" y="405" width="40" height="30" as="geometry" />
        </mxCell>
        <mxCell id="wgBA696czx0_unM-798S-39" style="edgeStyle=orthogonalEdgeStyle;curved=1;rounded=0;orthogonalLoop=1;jettySize=auto;html=1;exitX=0;exitY=0;exitDx=0;exitDy=0;entryX=1;entryY=0;entryDx=0;entryDy=0;fontSize=20;" edge="1" parent="1" source="wgBA696czx0_unM-798S-35" target="wgBA696czx0_unM-798S-35">
          <mxGeometry relative="1" as="geometry">
            <Array as="points">
              <mxPoint x="540" y="380" />
              <mxPoint x="590" y="380" />
            </Array>
          </mxGeometry>
        </mxCell>
        <mxCell id="wgBA696czx0_unM-798S-40" value="0-7" style="text;html=1;align=center;verticalAlign=middle;resizable=0;points=[];autosize=1;strokeColor=none;fillColor=none;fontSize=20;" vertex="1" parent="1">
          <mxGeometry x="545" y="350" width="40" height="30" as="geometry" />
        </mxCell>
        <mxCell id="wgBA696czx0_unM-798S-44" style="edgeStyle=orthogonalEdgeStyle;curved=1;rounded=0;orthogonalLoop=1;jettySize=auto;html=1;exitX=1;exitY=0.5;exitDx=0;exitDy=0;fontSize=20;" edge="1" parent="1" source="wgBA696czx0_unM-798S-41">
          <mxGeometry relative="1" as="geometry">
            <mxPoint x="840" y="435" as="targetPoint" />
          </mxGeometry>
        </mxCell>
        <mxCell id="wgBA696czx0_unM-798S-41" value="to_o_f" style="ellipse;whiteSpace=wrap;html=1;aspect=fixed;fontSize=20;" vertex="1" parent="1">
          <mxGeometry x="720" y="410" width="50" height="50" as="geometry" />
        </mxCell>
        <mxCell id="wgBA696czx0_unM-798S-43" value="" style="shape=waypoint;sketch=0;size=6;pointerEvents=1;points=[];fillColor=none;resizable=0;rotatable=0;perimeter=centerPerimeter;snapToPoint=1;fontSize=20;" vertex="1" parent="1">
          <mxGeometry x="640" y="405" width="40" height="40" as="geometry" />
        </mxCell>
        <mxCell id="wgBA696czx0_unM-798S-45" value="" style="ellipse;whiteSpace=wrap;html=1;aspect=fixed;fontSize=20;" vertex="1" parent="1">
          <mxGeometry x="840" y="400" width="70" height="70" as="geometry" />
        </mxCell>
        <mxCell id="wgBA696czx0_unM-798S-46" value="o_f" style="ellipse;whiteSpace=wrap;html=1;aspect=fixed;fontSize=20;" vertex="1" parent="1">
          <mxGeometry x="850" y="410" width="50" height="50" as="geometry" />
        </mxCell>
        <mxCell id="wgBA696czx0_unM-798S-47" style="edgeStyle=orthogonalEdgeStyle;curved=1;rounded=0;orthogonalLoop=1;jettySize=auto;html=1;exitX=0;exitY=0;exitDx=0;exitDy=0;entryX=1;entryY=0;entryDx=0;entryDy=0;fontSize=20;" edge="1" parent="1" source="wgBA696czx0_unM-798S-45" target="wgBA696czx0_unM-798S-45">
          <mxGeometry relative="1" as="geometry">
            <Array as="points">
              <mxPoint x="850" y="380" />
              <mxPoint x="900" y="380" />
            </Array>
          </mxGeometry>
        </mxCell>
        <mxCell id="wgBA696czx0_unM-798S-48" value="0-7" style="text;html=1;align=center;verticalAlign=middle;resizable=0;points=[];autosize=1;strokeColor=none;fillColor=none;fontSize=20;" vertex="1" parent="1">
          <mxGeometry x="855" y="350" width="40" height="30" as="geometry" />
        </mxCell>
        <mxCell id="wgBA696czx0_unM-798S-50" value="to_o_f" style="ellipse;whiteSpace=wrap;html=1;aspect=fixed;fontSize=20;" vertex="1" parent="1">
          <mxGeometry x="190" y="490" width="50" height="50" as="geometry" />
        </mxCell>
        <mxCell id="wgBA696czx0_unM-798S-51" value="x,X" style="text;html=1;align=center;verticalAlign=middle;resizable=0;points=[];autosize=1;strokeColor=none;fillColor=none;fontSize=20;" vertex="1" parent="1">
          <mxGeometry x="170" y="425" width="40" height="30" as="geometry" />
        </mxCell>
      </root>
    </mxGraphModel>
  </diagram>
</mxfile>
